<?xml version="1.0" encoding="utf-8"?>
<!-- Generator: Adobe Illustrator 24.1.1, SVG Export Plug-In . SVG Version: 6.00 Build 0)  -->
<svg version="1.1" id="Layer_1" xmlns="http://www.w3.org/2000/svg" xmlns:xlink="http://www.w3.org/1999/xlink" x="0px" y="0px"
	 viewBox="0 0 80 80" style="enable-background:new 0 0 80 80;" xml:space="preserve">
<style type="text/css">
	.st0{fill:#818080;}
	.st1{fill:#FFFFFF;}
</style>
<g>
	<path class="st0" d="M80,66.33C80,73.88,73.88,80,66.33,80H13.67C6.12,80,0,73.88,0,66.33V13.67C0,6.12,6.12,0,13.67,0h52.66
		C73.88,0,80,6.12,80,13.67V66.33z"/>
</g>
<g>
	<g>
		<path class="st1" d="M40,70.63c-5.36,0-10.62-1.42-15.28-4.11l-11.93,4.11l2.45-12.64C11.4,52.72,9.37,46.52,9.37,40
			C9.37,23.11,23.11,9.37,40,9.37c16.89,0,30.63,13.74,30.63,30.63C70.63,56.89,56.89,70.63,40,70.63z M25.27,61.51l0.92,0.58
			c4.16,2.61,8.93,3.99,13.8,3.99c14.38,0,26.07-11.7,26.07-26.07c0-14.38-11.7-26.07-26.07-26.07c-14.38,0-26.07,11.7-26.07,26.07
			c0,5.85,1.92,11.39,5.54,16.03l0.64,0.82l-1.34,6.91L25.27,61.51z"/>
	</g>
	<path class="st1" d="M24.54,28.23c0,0,1.8-3.14,3.26-3.32c1.47-0.18,3.35-0.18,3.86,0.78c0.51,0.96,2.78,6.52,2.78,6.52
		s0.39,0.96-0.21,1.89c-0.6,0.93-1.94,2.27-1.94,2.27s-0.75,0.96,0,1.98c0.75,1.02,1.91,2.89,4.31,5.29c2.4,2.4,7,4.11,7,4.11
		s0.66,0.09,1.08-0.33c0.42-0.42,2.69-3.26,2.69-3.26s0.73-0.94,1.95-0.39c1.21,0.55,6.46,3.17,6.46,3.17s0.61,0.23,0.61,1.15
		c0,0.93-0.38,3.2-1.14,3.96c-0.77,0.77-3.01,3.13-6.38,3.13c-3.37,0-11.4-2.74-15.68-7.02c-4.28-4.28-8.08-8.62-8.98-12.57
		C23.31,31.64,23.43,29.86,24.54,28.23z"/>
</g>
</svg>
