<svg xmlns="http://www.w3.org/2000/svg" width="45" height="14" fill="none" viewBox="0 0 45 14">
    <g clip-path="url(#prefix__clip0)">
        <path fill="url(#prefix__paint0_linear)" d="M22.03 6.041c-.426-.77-1.033-1.375-1.805-1.817-.755-.426-1.559-.655-2.38-.655-.722 0-1.411.164-2.068.475-.508.245-.968.573-1.395.982-.426.426-.755.933-1.017 1.523-.247.589-.378 1.244-.378 1.931 0 .426.066.852.18 1.26.116.427.296.82.526 1.212.23.393.558.77.968 1.13.41.377.903.671 1.445.868.541.213 1.116.31 1.707.31.837 0 1.641-.212 2.396-.654.755-.426 1.362-1.048 1.806-1.817.426-.77.64-1.572.64-2.39.032-.786-.197-1.589-.624-2.358zm-1.05 2.357c0 .606-.147 1.163-.426 1.687-.28.507-.673.9-1.166 1.178-.984.557-2.1.573-3.118-.016-.509-.295-.903-.688-1.166-1.179-.279-.507-.41-1.031-.41-1.588 0-.605.148-1.162.427-1.67.279-.507.673-.916 1.182-1.195.508-.294 1.034-.442 1.543-.442.508 0 1.017.148 1.526.426.509.278.903.671 1.198 1.162.263.475.41 1.032.41 1.638z"/>
        <path fill="url(#prefix__paint1_linear)" d="M43.976 11.509l-.427.147c-.131.05-.377.099-.903.099-.558 0-1.066-.18-1.066-1.441V5.157h2.396V3.618H41.58V1.441l-1.806.638v1.523h-1.756c-2.02 0-3.644 1.588-3.644 3.552v5.828h1.805V7.383c0-1.26.887-2.16 2.052-2.226h1.543v4.928c0 1.195.213 1.964.706 2.455.443.492 1.132.754 2.019.754.574 0 1.066-.066 1.46-.213l.312-.115-.295-1.457z"/>
        <path fill="url(#prefix__paint2_linear)" d="M12.839 3.618c-2.019 0-3.677 1.605-3.677 3.57v5.827h1.806V7.384c0-1.277.919-2.194 2.1-2.227 0 0 .789-1.44.805-1.473-.476-.066-1.034-.066-1.034-.066z"/>
        <path fill="url(#prefix__paint3_linear)" d="M2.204 13.015V7.4h.607c1.625 0 2.709-.066 3.316-.213.853-.213 1.526-.606 2.019-1.211.492-.606.738-1.376.738-2.276 0-.9-.262-1.67-.755-2.292C7.621.802 6.98.393 6.193.213 5.65.066 4.666 0 3.173 0H.333v13.015h1.871zm0-11.181h1.953c.821 0 1.412.065 1.757.196.328.131.574.344.771.639.197.31.295.638.295 1.015 0 .376-.098.72-.295 1.031-.197.311-.46.524-.82.655-.362.147-.969.213-1.806.213l-1.855-.017V1.834z"/>
        <path fill="url(#prefix__paint4_linear)" d="M28.3 0h-.672l-5.335 13.015h1.839l1.674-4.093h4.251l1.69 4.093h1.806L28.301 0zm-1.756 7.138l1.412-3.422 1.395 3.422h-2.806z"/>
    </g>
    <defs>
        <linearGradient id="prefix__paint0_linear" x1="22.268" x2="22.268" y1="12.636" y2="-.604" gradientUnits="userSpaceOnUse">
            <stop stop-color="#9A7A59"/>
            <stop offset=".539" stop-color="#CDAB82"/>
            <stop offset="1" stop-color="#DFC9A9"/>
        </linearGradient>
        <linearGradient id="prefix__paint1_linear" x1="22.268" x2="22.268" y1="12.636" y2="-.604" gradientUnits="userSpaceOnUse">
            <stop stop-color="#9A7A59"/>
            <stop offset=".539" stop-color="#CDAB82"/>
            <stop offset="1" stop-color="#DFC9A9"/>
        </linearGradient>
        <linearGradient id="prefix__paint2_linear" x1="22.268" x2="22.268" y1="12.636" y2="-.604" gradientUnits="userSpaceOnUse">
            <stop stop-color="#9A7A59"/>
            <stop offset=".539" stop-color="#CDAB82"/>
            <stop offset="1" stop-color="#DFC9A9"/>
        </linearGradient>
        <linearGradient id="prefix__paint3_linear" x1="22.268" x2="22.268" y1="12.636" y2="-.604" gradientUnits="userSpaceOnUse">
            <stop stop-color="#9A7A59"/>
            <stop offset=".539" stop-color="#CDAB82"/>
            <stop offset="1" stop-color="#DFC9A9"/>
        </linearGradient>
        <linearGradient id="prefix__paint4_linear" x1="22.268" x2="22.268" y1="12.636" y2="-.604" gradientUnits="userSpaceOnUse">
            <stop stop-color="#9A7A59"/>
            <stop offset=".539" stop-color="#CDAB82"/>
            <stop offset="1" stop-color="#DFC9A9"/>
        </linearGradient>
        <clipPath id="prefix__clip0">
            <path fill="#fff" d="M0 0H44.625V14H0z" transform="translate(.333)"/>
        </clipPath>
    </defs>
</svg>
