<svg xmlns="http://www.w3.org/2000/svg" width="31" height="16" fill="none" viewBox="0 0 31 16">
    <path fill="#B3B3B3" d="M19.965 13.83c-2.576.51-7.137-1.28-7.137-1.28.394-.292 5.152-3.817 16.39-8.361.011 0 .033-.011.044-.011.373-.152.877-1.02.888-1.508 0 0-3.98.358-7.499 2.148C17.915 7.052 9.922 12.68 9.922 12.68s.581.39 1.097.607c3.859 1.67 9.505 2.7 10.601 2.343 2.972-.955 6.294-7.18 7.335-10.054 0 0-3.124 1.225-6.282 2.7-2.642 1.226-4.254 2.018-5.01 2.386-.077.033-.132.055-.154.066l.132-.055c-.34.174-.505.25-.505.25l8.98-2.69-1.612.488s-1.974 4.588-4.539 5.108zm6.129-5.488l.066-.13c.01 0-.022.055-.066.13zM17.51 10.718l-.012.012.012-.012z"/>
    <path fill="#B3B3B3" d="M11.391 16s-.033-.033-.076-.087c-.362-.39-1.853-1.996-2.347-2.918-.296-.553.066-1.29 2.467-3.047C13.606 8.353 21.423 1.857 28.9.11c0 0-3.914-.63-9.516 1.106-1.995.618-4.934 3.384-10.317 8.6-.735.402-3.355-1.084-4.868-1.81 0 0 2.51 3.925 3.388 5.097C8.935 14.948 11.39 16 11.39 16zM6.227 12.377c.033.01.055.022.055.022-.01 0-.01-.011-.022-.022h.022C4.221 10.945 0 7.052 0 7.052s0 .01.011.01H0l.011.012c.088.227.888 2.31 1.71 3.35.79 1.042 4.035 1.845 4.506 1.953z"/>
</svg>
