<svg xmlns="http://www.w3.org/2000/svg" width="40" height="40" fill="none" viewBox="0 0 40 40">
    <path stroke="gray" stroke-miterlimit="10" stroke-width=".991" d="M39.505 20c0 10.772-8.733 19.505-19.505 19.505C9.228 39.505.495 30.771.495 20 .495 9.228 9.229.495 20 .495 30.772.495 39.505 9.229 39.505 20z"/>
    <path fill="gray" d="M25.821 23.465c-.36 0-.539.279-.539.836v.566h1.078V24.3c0-.557-.18-.836-.539-.836z"/>
    <path fill="gray" d="M28.445 20.379c-.095-.468-.336-.894-.689-1.216-.337-.319-.767-.522-1.227-.578-4.423-.327-8.864-.327-13.287 0-.463.054-.896.257-1.234.578-.35.325-.592.75-.694 1.216-.246 1.42-.35 2.86-.312 4.3-.041 1.44.063 2.88.312 4.3.095.469.336.895.688 1.218.336.319.768.517 1.229.565 4.427.345 8.873.345 13.3 0 .459-.047.89-.245 1.222-.565.352-.325.596-.75.7-1.218.245-1.42.349-2.86.311-4.3.038-1.44-.069-2.881-.32-4.3zm-12.376 1.242h-1.282v7h-1.2v-7h-1.258v-1.155h3.738l.002 1.155zm3.234 7h-1.066v-.664c-.139.204-.32.377-.53.506-.211.129-.447.212-.692.243-.15.018-.303-.018-.43-.1-.127-.084-.22-.21-.264-.355-.077-.294-.11-.597-.1-.9v-4.807h1.066v4.476c-.005.143 0 .287.012.43.024.172.108.258.252.258.215 0 .443-.171.682-.516v-4.647h1.066l.004 6.076zm4.073-1.82c.019.413-.017.827-.107 1.23-.038.196-.144.371-.3.495-.157.124-.352.188-.551.18-.225-.02-.442-.091-.635-.208-.193-.117-.357-.277-.48-.467v.59H20.24V20.47h1.065v2.667c.12-.19.285-.349.478-.464.194-.115.411-.183.636-.2.2-.005.397.06.553.187.157.127.262.305.298.503.09.399.127.808.107 1.216v2.422zm4.05-1.008h-2.145v1.07c0 .565.184.848.551.848.122.004.24-.04.33-.122.09-.083.143-.198.149-.32.023-.249.031-.5.024-.749h1.09v.159c.008.238 0 .476-.024.713-.03.238-.116.466-.252.664-.14.212-.332.384-.56.499-.226.114-.48.166-.733.152-.25.01-.5-.042-.726-.15-.226-.11-.421-.273-.569-.476-.264-.427-.386-.927-.347-1.427v-2.127c-.038-.498.079-.997.335-1.426.15-.195.344-.353.566-.461.22-.109.464-.165.71-.165.247 0 .49.056.711.165.222.108.415.266.566.461.247.433.36.93.323 1.426l.001 1.266z"/>
    <path fill="gray" d="M21.843 23.465c-.104.006-.205.033-.297.08-.093.046-.175.11-.242.19v3.7c.067.08.149.144.242.19.092.047.194.074.297.08.311 0 .467-.274.467-.823v-2.594c0-.549-.156-.823-.467-.823zM15.376 13.9v3.332h1.2V13.9L18.025 9h-1.222l-.814 3.232L15.139 9h-1.271c.224.688.484 1.455.779 2.3.298.85.541 1.719.729 2.6zM19.626 17.319c.248.012.494-.04.717-.15.222-.109.413-.273.554-.477.258-.438.375-.944.335-1.45V13.09c.04-.502-.078-1.005-.335-1.438-.148-.195-.339-.353-.558-.462-.22-.109-.461-.165-.706-.165-.245 0-.486.056-.706.165-.219.109-.41.267-.558.462-.257.433-.374.936-.335 1.438v2.152c-.038.506.08 1.012.335 1.45.14.201.33.364.549.474.22.11.463.162.708.153zm-.515-4.451c0-.565.172-.848.515-.848s.515.283.515.848v2.582c0 .574-.172.86-.515.86s-.515-.287-.515-.86v-2.582zM22.922 17.319c.249-.03.488-.113.701-.245.213-.132.395-.309.532-.518v.677h1.09v-6.134h-1.09v4.684c-.24.352-.467.528-.682.528-.144 0-.228-.089-.252-.27-.013-.143-.017-.287-.012-.43v-4.512h-1.09v4.843c-.011.31.022.621.1.922.047.145.143.269.27.352.129.083.281.119.433.103z"/>
</svg>
