<svg xmlns="http://www.w3.org/2000/svg" width="40" height="40" fill="none" viewBox="0 0 40 40">
    <path stroke="gray" stroke-miterlimit="10" stroke-width=".991" d="M39.505 20c0 10.772-8.733 19.505-19.505 19.505C9.228 39.505.495 30.771.495 20 .495 9.228 9.229.495 20 .495 30.772.495 39.505 9.229 39.505 20z"/>
    <path fill="gray" d="M17.839 14.624v2.574H16v3.147h1.839v9.354h3.775v-9.354h2.533s.237-1.509.352-3.16h-2.87v-2.152c.031-.2.129-.382.277-.52.149-.136.339-.22.54-.235h2.057V11h-2.8c-3.964.003-3.864 3.152-3.864 3.624z"/>
</svg>
