<svg xmlns="http://www.w3.org/2000/svg" width="40" height="40" fill="none" viewBox="0 0 40 40">
    <path stroke="gray" stroke-miterlimit="10" stroke-width=".991" d="M39.505 20c0 10.772-8.733 19.505-19.505 19.505C9.228 39.505.495 30.771.495 20 .495 9.228 9.229.495 20 .495 30.772.495 39.505 9.229 39.505 20z"/>
    <path fill="gray" d="M20 10.982c2.937 0 3.285.011 4.445.064 1.072.05 1.655.228 2.043.379.513.2.88.438 1.264.823.385.385.624.751.823 1.264.15.388.33.97.379 2.043.053 1.16.064 1.508.064 4.445 0 2.937-.011 3.285-.064 4.445-.05 1.072-.228 1.655-.379 2.043-.2.513-.438.88-.823 1.264-.385.385-.751.624-1.264.823-.388.15-.97.33-2.043.379-1.16.053-1.508.064-4.445.064-2.937 0-3.285-.011-4.445-.064-1.072-.049-1.655-.228-2.043-.379-.513-.2-.88-.438-1.264-.823-.385-.385-.624-.751-.823-1.264-.15-.388-.33-.97-.379-2.043-.053-1.16-.064-1.508-.064-4.445 0-2.937.011-3.285.064-4.445.049-1.072.228-1.655.379-2.043.2-.513.438-.88.823-1.264.385-.385.751-.624 1.264-.823.388-.15.97-.33 2.043-.379 1.16-.053 1.508-.064 4.445-.064zM20 9c-2.988 0-3.362.013-4.535.066-1.171.054-1.97.24-2.67.512-.724.28-1.337.657-1.949 1.268-.611.612-.987 1.225-1.269 1.949-.271.7-.457 1.499-.51 2.67C9.012 16.638 9 17.013 9 20c0 2.988.013 3.362.066 4.535.054 1.171.24 1.97.511 2.67.282.724.658 1.337 1.27 1.949.61.611 1.224.987 1.947 1.268.7.273 1.5.458 2.67.512 1.174.053 1.548.066 4.536.066 2.987 0 3.362-.013 4.535-.066 1.171-.054 1.97-.24 2.67-.512.724-.28 1.337-.657 1.949-1.268.611-.612.987-1.225 1.268-1.948.272-.7.458-1.5.512-2.67.053-1.174.066-1.549.066-4.536 0-2.987-.013-3.362-.066-4.535-.054-1.171-.24-1.97-.512-2.67-.28-.724-.657-1.337-1.268-1.949-.612-.611-1.225-.987-1.949-1.268-.7-.272-1.499-.458-2.67-.512C23.362 9.013 22.987 9 20 9zm0 5.351c-3.12 0-5.649 2.53-5.649 5.649 0 3.12 2.53 5.649 5.649 5.649 3.12 0 5.649-2.53 5.649-5.649 0-3.12-2.53-5.649-5.649-5.649zm0 9.316c-2.025 0-3.667-1.642-3.667-3.667s1.642-3.667 3.667-3.667 3.667 1.642 3.667 3.667-1.642 3.667-3.667 3.667zm7.192-9.539c0 .73-.591 1.32-1.32 1.32-.73 0-1.32-.59-1.32-1.32 0-.729.59-1.32 1.32-1.32.729 0 1.32.591 1.32 1.32z"/>
</svg>
