<svg xmlns="http://www.w3.org/2000/svg" width="40" height="40" fill="none" viewBox="0 0 40 40">
    <path fill="gray" d="M29.958 14.22c-.742.337-1.531.56-2.34.659.856-.53 1.492-1.352 1.792-2.314-.799.486-1.676.829-2.592 1.015-.376-.416-.835-.748-1.348-.976-.513-.227-1.067-.345-1.628-.345-1.095.014-2.14.463-2.904 1.247-.765.785-1.186 1.84-1.173 2.936-.002.32.032.64.1.954-1.63-.09-3.223-.526-4.672-1.28-1.448-.754-2.72-1.808-3.728-3.092-.52.921-.68 2.003-.447 3.036.233 1.032.842 1.94 1.708 2.549-.65-.023-1.283-.203-1.847-.526v.052c-.008.954.313 1.883.908 2.63.596.746 1.43 1.265 2.362 1.47-.35.097-.71.146-1.074.147-.257 0-.514-.026-.767-.078.25.822.752 1.546 1.435 2.067.684.522 1.514.816 2.373.84-1.434 1.158-3.221 1.789-5.064 1.788-.325 0-.65-.02-.973-.057 1.854 1.227 4.028 1.882 6.251 1.883 7.5 0 11.6-6.376 11.6-11.906l-.013-.541c.805-.59 1.497-1.322 2.041-2.158z"/>
    <path stroke="gray" stroke-miterlimit="10" stroke-width=".991" d="M39.505 20c0 10.772-8.733 19.505-19.505 19.505C9.228 39.505.495 30.771.495 20 .495 9.228 9.229.495 20 .495 30.772.495 39.505 9.229 39.505 20z"/>
</svg>
